<svg width="22" height="21" viewBox="0 0 22 21" fill="none" xmlns="http://www.w3.org/2000/svg">
<g clip-path="url(#clip0_75_3235)">
<path d="M3.86656 12.19H0.637812C0.565625 12.19 0.5 12.249 0.5 12.3278V18.8312C0.5 18.9067 0.565625 18.969 0.637812 18.969H3.86328C3.94203 18.969 4.00109 18.9034 4.00109 18.8312V12.3278C4.00191 12.3097 3.99901 12.2917 3.99258 12.2748C3.98615 12.258 3.97632 12.2426 3.96371 12.2297C3.9511 12.2168 3.93597 12.2066 3.91926 12.1997C3.90255 12.1929 3.88461 12.1896 3.86656 12.19ZM2.61641 18.3587C2.30469 18.3587 2.04875 18.1028 2.04875 17.791C2.04875 17.476 2.30469 17.2201 2.61641 17.2201C2.93141 17.2201 3.18734 17.476 3.18734 17.791C3.18734 18.1028 2.93141 18.3587 2.61641 18.3587ZM20.6305 14.8445L15.4625 16.5474C15.2623 16.7312 14.9998 16.8362 14.7308 16.8362H9.34953C9.30471 16.8362 9.26173 16.8184 9.23004 16.7867C9.19835 16.755 9.18055 16.712 9.18055 16.6672C9.18055 16.6224 9.19835 16.5794 9.23004 16.5477C9.26173 16.516 9.30471 16.4982 9.34953 16.4982H14.7308C14.9178 16.4982 15.0983 16.426 15.2361 16.3014C15.2459 16.2882 15.2591 16.2784 15.2722 16.2653C15.4002 16.1307 15.4723 15.947 15.4723 15.7534C15.4723 15.3432 15.1409 15.0085 14.7308 15.0085H11.0164C10.918 15.0085 10.8327 14.9724 10.7638 14.897C9.1625 13.0792 6.22906 12.8035 4.62125 12.8035C4.52281 12.8035 4.42766 12.8068 4.33906 12.8068V18.1028L9.27734 19.786C10.4455 20.1831 11.6956 20.2881 12.9261 20.0682C13.7088 19.9319 14.4644 19.6704 15.1639 19.2939L21.1555 16.0389C21.3688 15.924 21.4967 15.7042 21.4967 15.4646C21.4967 15.3662 21.477 15.2743 21.4311 15.1857C21.3636 15.0398 21.2444 14.9241 21.0965 14.861C20.9485 14.798 20.7825 14.7921 20.6305 14.8445ZM9.22484 3.69151L9.20188 5.28948C9.20188 5.30589 9.21172 5.31573 9.22484 5.31573H21.4803C21.4902 5.31573 21.5 5.30589 21.5 5.28948V3.7112L9.22484 3.69151ZM14.4387 12.9085V5.64714H9.80563V12.7379C9.80563 12.8331 9.88109 12.9118 9.97625 12.9118H14.4387V12.9085ZM20.8995 12.7379V5.64714H16.2631V12.9085H20.7289C20.8208 12.9085 20.8995 12.8298 20.8995 12.7379ZM14.7734 5.64714H15.9317V12.9085H14.7734V5.64714ZM13.4511 3.30104L14.2222 3.55698H16.3452L17.1195 3.30104C17.326 3.23345 17.5116 3.11365 17.6582 2.95326C17.8048 2.79286 17.9075 2.59732 17.9563 2.38558C18.0613 1.95573 17.9333 1.50948 17.6183 1.1912C17.3787 0.948389 17.0605 0.817139 16.7225 0.817139C16.6208 0.817139 16.5223 0.830264 16.4239 0.853232C16.2122 0.90209 16.0167 1.00478 15.8563 1.15137C15.6959 1.29796 15.5761 1.48347 15.5084 1.68995L15.2886 2.35604L15.0655 1.68995C14.9178 1.26667 14.5766 0.95167 14.1434 0.853232C13.9321 0.801614 13.711 0.805614 13.5017 0.864843C13.2924 0.924072 13.102 1.03651 12.9491 1.1912C12.6341 1.5062 12.5061 1.95245 12.6078 2.38558C12.6586 2.59745 12.7627 2.79282 12.9103 2.95306C13.0579 3.11331 13.2441 3.23311 13.4511 3.30104ZM16.2041 1.92292C16.2631 1.74573 16.4075 1.61448 16.588 1.57183C16.6306 1.56198 16.6733 1.55542 16.7127 1.55542C16.8537 1.55542 16.9883 1.6112 17.0867 1.71292C17.218 1.84089 17.2738 2.0312 17.2311 2.21167C17.1852 2.39542 17.0539 2.53979 16.8767 2.59886L15.8595 2.93683L16.2041 1.92292ZM13.4708 1.7162C13.5725 1.61448 13.707 1.5587 13.8481 1.5587C13.8908 1.5587 13.9334 1.56526 13.9761 1.57511C14.1566 1.61776 14.3009 1.74901 14.36 1.9262L14.698 2.94339L13.6808 2.60542C13.5036 2.54636 13.3723 2.40198 13.3264 2.22151C13.287 2.03448 13.3395 1.84745 13.4708 1.7162Z" fill="#8A8A8A"/>
</g>
<defs>
<clipPath id="clip0_75_3235">
<rect width="21" height="21" fill="white" transform="translate(0.5)"/>
</clipPath>
</defs>
</svg>
