<svg width="20" height="16" viewBox="0 0 20 16" fill="none" xmlns="http://www.w3.org/2000/svg">
<path d="M5.53953 1.34814C5.53953 1.60701 5.32969 1.81689 5.07078 1.81689H1.99945C1.6602 1.81689 1.38418 2.07283 1.38418 2.38736V5.33189C1.38418 5.59076 1.1743 5.80064 0.91543 5.80064C0.656523 5.80064 0.44668 5.59076 0.44668 5.33189V2.38736C0.44668 1.55588 1.14324 0.879395 1.99945 0.879395H5.07082C5.32969 0.879395 5.53953 1.08928 5.53953 1.34814ZM19.0846 10.1995C18.8257 10.1995 18.6158 10.4094 18.6158 10.6682V13.6128C18.6158 13.9274 18.3398 14.1833 18.0006 14.1833H14.9292C14.6703 14.1833 14.4604 14.3931 14.4604 14.652C14.4604 14.9109 14.6703 15.1208 14.9292 15.1208H18.0006C18.8568 15.1208 19.5533 14.4443 19.5533 13.6128V10.6682C19.5533 10.4094 19.3435 10.1995 19.0846 10.1995ZM4.9757 14.1832H1.90434C1.56504 14.1832 1.28906 13.9273 1.28906 13.6128V10.6682C1.28906 10.4093 1.07922 10.1994 0.820312 10.1994C0.561406 10.1994 0.351562 10.4093 0.351562 10.6682V13.6128C0.351562 14.4442 1.04812 15.1207 1.90434 15.1207H4.9757C5.23461 15.1207 5.44445 14.9108 5.44445 14.652C5.44445 14.3931 5.23461 14.1832 4.9757 14.1832ZM18.0957 0.879395H15.0243C14.7654 0.879395 14.5555 1.08928 14.5555 1.34814C14.5555 1.60701 14.7654 1.81689 15.0243 1.81689H18.0957C18.435 1.81689 18.7109 2.07283 18.7109 2.38736V5.33189C18.7109 5.59076 18.9208 5.80064 19.1797 5.80064C19.4386 5.80064 19.6484 5.59076 19.6484 5.33189V2.38736C19.6484 1.55588 18.9519 0.879395 18.0957 0.879395ZM4.43691 10.5312V5.62049C4.43691 5.36158 4.22707 5.15174 3.96816 5.15174C3.70926 5.15174 3.49941 5.36158 3.49941 5.62049V10.5312C3.49941 10.7901 3.70926 10.9999 3.96816 10.9999C4.22707 10.9999 4.43691 10.7901 4.43691 10.5312ZM7.98938 5.15174C7.73047 5.15174 7.52063 5.36158 7.52063 5.62049V10.5312C7.52063 10.7901 7.73047 10.9999 7.98938 10.9999C8.24828 10.9999 8.45813 10.7901 8.45813 10.5312V5.62049C8.45813 5.36158 8.24828 5.15174 7.98938 5.15174ZM12.0106 5.15174C11.7517 5.15174 11.5419 5.36158 11.5419 5.62049V10.5312C11.5419 10.7901 11.7517 10.9999 12.0106 10.9999C12.2695 10.9999 12.4794 10.7901 12.4794 10.5312V5.62049C12.4794 5.36158 12.2695 5.15174 12.0106 5.15174ZM16.5006 10.5312V5.62049C16.5006 5.36158 16.2907 5.15174 16.0318 5.15174C15.7729 5.15174 15.5631 5.36158 15.5631 5.62049V10.5312C15.5631 10.7901 15.7729 10.9999 16.0318 10.9999C16.2907 10.9999 16.5006 10.7901 16.5006 10.5312Z" fill="#F76B56"/>
</svg>
